# xmcd CD database file
#
# Track frame offsets:
#	150
#	16664
#	30615
#	42483
#	56496
#	71410
#	84901
#	97757
#	110371
#	132723
#	142838
#	155409
#	168990
#	182305
#	195696
#	208044
#	219750
#	230136
#	243077
#	255732
#
# Disc length: 3603 seconds
#
# Revision: 1
# Processed by: cddbd v1.5.2PL0 Copyright (c) Steve Scherf et al.
# Submitted via: CDex 2.06
#
DISCID=020e1114
DTITLE=Artisti Vari - 1939
DYEAR=1939
DGENRE=Jazz
TTITLE0=Glenn Miller - In The Mood
TTITLE1=Billie Holiday - more Than You Know
TTITLE2=Gene Autry - Back In The Saddle Again
TTITLE3=Jimmie Lanceford - 'Taint What You Do
TTITLE4=Benny Goodmann - Flying Home
TTITLE5=Duke Ellington - Battle Of Swing
TTITLE6=Jon Kirby and His Orchestra - Effervescent Blues
TTITLE7=The Bud Foreman Orchestra - The Eel
TTITLE8=Coleman Hawkins - Body and Soul
TTITLE9=Lionel Hampton - When Lights Are Low
TTITLE10=Tommy Dorsey - Our Love
TTITLE11=Gene Krupa - I'm gonna Clap My Hands
TTITLE12=Glenn Miller - Little Brown Jug
TTITLE13=Eddy Duchin and Mary Martin - My Heart Belongs To Daddy
TTITLE14=Earl Hines - Grand Terrace Shuffle
TTITLE15=Mildred Bailey With Benny Goodmann - I Thought About You
TTITLE16=Arttie Shaw - Traffic Jam
TTITLE17=Jimmie Lanceford - Blue Blazes
TTITLE18=Wingy Manone - Jumpy Nerves
TTITLE19=Count Basie - Lester Leaps In
EXTD=YEAR: 1939
EXTT0=
EXTT1=
EXTT2=
EXTT3=
EXTT4=
EXTT5=
EXTT6=
EXTT7=
EXTT8=
EXTT9=
EXTT10=
EXTT11=
EXTT12=
EXTT13=
EXTT14=
EXTT15=
EXTT16=
EXTT17=
EXTT18=
EXTT19=
PLAYORDER=
